<?xml version="1.0" encoding="UTF-8" standalone="no"?>
<!-- Created with Inkscape (http://www.inkscape.org/) -->

<svg
   width="65.651207mm"
   height="72.834808mm"
   viewBox="0 0 65.651207 72.834809"
   version="1.1"
   id="svg1"
   xml:space="preserve"
   inkscape:version="1.4.3 (0d15f75, 2025-12-25)"
   sodipodi:docname="Infantry_dead.svg"
   xmlns:inkscape="http://www.inkscape.org/namespaces/inkscape"
   xmlns:sodipodi="http://sodipodi.sourceforge.net/DTD/sodipodi-0.dtd"
   xmlns="http://www.w3.org/2000/svg"
   xmlns:svg="http://www.w3.org/2000/svg"><sodipodi:namedview
     id="namedview1"
     pagecolor="#ffffff"
     bordercolor="#000000"
     borderopacity="0.25"
     inkscape:showpageshadow="2"
     inkscape:pageopacity="0.0"
     inkscape:pagecheckerboard="0"
     inkscape:deskcolor="#d1d1d1"
     inkscape:document-units="mm"
     inkscape:zoom="2.8044052"
     inkscape:cx="144.05907"
     inkscape:cy="132.47016"
     inkscape:window-width="1920"
     inkscape:window-height="974"
     inkscape:window-x="-11"
     inkscape:window-y="-11"
     inkscape:window-maximized="1"
     inkscape:current-layer="layer1"><inkscape:page
       x="0"
       y="0"
       width="65.651207"
       height="72.834808"
       id="page1"
       margin="0"
       bleed="0" /></sodipodi:namedview><defs
     id="defs1" /><g
     inkscape:label="Laag 1"
     inkscape:groupmode="layer"
     id="layer1"
     transform="translate(-121.51715,-67.457117)"><path
       id="path1"
       style="fill:#d1915f;fill-rule:evenodd;stroke:#000000;stroke-width:0.299156"
       d="m 144.64725,87.647079 c 0,1.728004 -1.27303,4.084077 -3.10524,4.084076 -1.83222,10e-7 -3.5298,-2.356072 -3.5298,-4.084076 0,-1.728004 1.4853,-3.128827 3.31752,-3.128826 1.83222,-10e-7 3.31752,1.400822 3.31752,3.128826 z"
       sodipodi:nodetypes="sssss" /><path
       id="path2"
       style="fill:#2d5016;fill-opacity:1;fill-rule:evenodd;stroke:#000000;stroke-width:0.329999"
       d="m 145.32772,84.585345 c 0,0.302241 1.27286,1.222171 0.53941,1.746781 -1.32327,0.946493 -4.19945,-0.320886 -5.8298,2.000013 -0.76768,1.092823 -2.71929,0.663862 -3.24788,0.663863 -2.34476,0 -0.7728,-3.386476 -0.23586,-4.339898 0.58966,-1.047045 2.18383,-2.052016 4.52858,-2.052017 2.34476,10e-7 4.24555,0.88704 4.24555,1.981258 z"
       sodipodi:nodetypes="sssssss" /><path
       id="path3-8"
       style="fill:#2d5016;fill-rule:evenodd;stroke:#000000;stroke-width:0.159"
       d="m 138.48518,127.62847 c -1.16052,-0.0944 -1.76447,-4.3114 -1.34896,-9.41891 0.26001,-3.19614 0.027,-6.53631 0.72226,-8.15187 0.41578,-0.96614 1.69709,-0.96047 2.13138,-0.92514 0.5347,0.0435 1.58623,0.13807 1.83934,1.61587 0.29627,1.72951 -0.26631,5.04875 -0.49038,7.80303 -0.23751,2.91955 -0.59377,6.69457 -1.21174,8.35038 -0.46314,1.2409 -1.14475,0.76708 -1.64189,0.72664 z"
       sodipodi:nodetypes="ssssssss" /><path
       id="path3-8-1"
       style="fill:#2d5016;fill-rule:evenodd;stroke:#000000;stroke-width:0.159"
       d="m 147.34554,127.81514 c -1.13481,0.26065 -2.98466,-3.57678 -4.13175,-8.57113 -0.71782,-3.12532 -1.94914,-6.23898 -1.7745,-7.9891 0.10444,-1.04661 1.32758,-1.42834 1.75224,-1.52588 0.52286,-0.12009 1.55382,-0.34764 2.2416,0.98461 0.80498,1.55917 1.27156,4.89326 1.89015,7.58651 0.6557,2.85486 1.45667,6.56109 1.36787,8.32623 -0.0666,1.32284 -0.85948,1.0771 -1.3456,1.18876 z"
       sodipodi:nodetypes="ssssssss" /><path
       id="path3-6-93"
       style="fill:#2d5016;fill-rule:evenodd;stroke:#000000;stroke-width:0.161296"
       d="m 154.92117,98.238112 c -0.98099,1.002227 -5.43714,0.480837 -9.95307,-1.164548 -2.82594,-1.02965 -6.16705,-1.659521 -7.16228,-2.6784 -0.59519,-0.609299 0.39461,-1.74051 0.76173,-2.115564 0.45197,-0.461773 1.51311,-1.085236 3.10611,-0.939347 1.8649,0.170903 5.96019,0.301481 8.39546,1.188784 2.58138,0.940535 4.33291,3.115199 5.42563,4.075846 0.8189,0.719924 -0.15337,1.203876 -0.57357,1.633219 z"
       sodipodi:nodetypes="sssssssss" /><path
       id="path3-6-9-1"
       style="fill:#2d5016;fill-rule:evenodd;stroke:#000000;stroke-width:0.126576"
       d="m 161.78858,91.880538 c 0.53041,1.046 -1.37072,3.076 -4.24628,4.53414 -1.79944,0.91246 -3.42784,2.30635 -4.61906,2.27575 -0.71237,-0.0183 -1.34947,-1.13804 -1.54796,-1.52948 -0.24438,-0.48193 -0.0637,-1.02539 0.58155,-1.77281 0.75544,-0.87493 2.11404,-1.97502 3.66472,-2.76133 1.64372,-0.8335 3.79361,-1.8684 4.96728,-1.9195 0.87956,-0.0383 0.97254,0.72516 1.19976,1.17325 z"
       sodipodi:nodetypes="sssssssss" /><path
       id="rect1"
       style="fill:#2d5016;stroke:#000000;stroke-width:0.28111"
       inkscape:transform-center-x="-2.6136795"
       inkscape:transform-center-y="6.2628575"
       d="m 137.64412,92.691422 0.99676,-1.061388 h 5.61357 l 1.18902,1.17932 -0.0472,17.593696 h -7.68142 z"
       sodipodi:nodetypes="ccccccc" /><path
       id="path4"
       style="fill:#502d16;fill-opacity:1;fill-rule:evenodd;stroke:#000000;stroke-width:0.329999"
       d="m 149.07836,126.96616 c 0.0944,0.39672 3.04423,1.16914 3.10736,1.56506 0.03,0.1881 1.07381,-0.34906 1.51733,-0.15553 0.70097,0.30589 1.11955,1.29143 0.79625,1.49484 -0.87968,0.55345 -4.30275,1.0294 -4.78305,1.14373 -0.58444,0.13913 -3.32605,0.43693 -3.83065,-0.20733 -0.3619,-0.46204 -0.27329,-2.26864 -0.44166,-2.97596 -0.20764,-0.87227 -0.66898,-2.40004 -0.45549,-3.04087 0.20105,-0.6034 1.05599,-0.34235 1.54268,-0.4582 0.50497,-0.12021 1.80408,-0.50789 2.26697,-0.0252 0.45708,0.47666 0.0799,1.81767 0.28017,2.6591 z"
       sodipodi:nodetypes="ssssssssssss" /><path
       id="path4-2"
       style="fill:#502d16;fill-rule:evenodd;stroke:#000000;stroke-width:0.329999"
       d="m 140.01584,128.22885 c -0.0143,0.40754 2.62449,1.93553 2.58023,2.334 -0.021,0.18931 1.12795,-0.0514 1.50415,0.25296 0.59458,0.48104 0.73644,1.54235 0.37073,1.65261 -0.99506,0.29999 -4.42163,-0.1501 -4.91504,-0.16741 -0.60041,-0.0211 -3.32267,-0.46195 -3.63808,-1.21707 -0.22622,-0.54155 0.33893,-2.25977 0.36443,-2.98641 0.0314,-0.89609 -0.008,-2.49151 0.36833,-3.05265 0.35405,-0.52835 1.10898,-0.0496 1.60896,-0.0321 0.51877,0.0182 1.87418,-0.0106 2.19228,0.57767 0.3141,0.58092 -0.40563,1.77364 -0.43598,2.63804 z"
       sodipodi:nodetypes="ssssssssssss" /><path
       id="path3-6"
       style="fill:#2d5016;fill-rule:evenodd;stroke:#000000;stroke-width:0.126576"
       d="m 148.3015,100.58078 c -0.89513,0.75775 -3.30948,-0.622866 -5.39259,-3.083689 -1.30356,-1.539913 -3.03599,-2.802177 -3.28144,-3.968243 -0.1468,-0.697332 0.79543,-1.575918 1.13042,-1.859484 0.41241,-0.349123 1.23072,-0.730947 2.107,-0.275894 1.0258,0.532831 3.35812,1.470337 4.48146,2.797363 1.19075,1.406647 1.49851,3.821468 1.81944,4.951551 0.24052,0.84691 -0.48083,1.113776 -0.86427,1.438386 z"
       sodipodi:nodetypes="sssssssss" /><path
       id="path3-6-9"
       style="fill:#2d5016;fill-rule:evenodd;stroke:#000000;stroke-width:0.126576"
       d="m 153.78497,91.341711 c 0.87241,0.783793 -0.16713,3.363433 -2.32187,5.761789 -1.34837,1.500821 -2.36336,3.38878 -3.48521,3.79052 -0.67089,0.24024 -1.66943,-0.57378 -1.9959,-0.8671 -0.40196,-0.361115 -0.42978,-0.933147 -0.0981,-1.863169 0.38842,-1.088724 1.25794,-2.605273 2.41991,-3.898615 1.23169,-1.370942 2.86263,-3.112511 3.9386,-3.584098 0.80634,-0.353422 1.16881,0.324917 1.54254,0.660686 z"
       sodipodi:nodetypes="sssssssss" /><rect
       style="fill:#000000;fill-opacity:0;stroke:none;stroke-width:0.159;stroke-dasharray:none;stroke-opacity:1"
       id="rect4"
       width="8.2723408"
       height="5.4037061"
       x="173.52289"
       y="62.075684" /><rect
       style="fill:#000000;fill-opacity:0;stroke:none;stroke-width:0.159;stroke-dasharray:none;stroke-opacity:1"
       id="rect5"
       width="20.280577"
       height="3.8693204"
       x="158.84615"
       y="64.877609" /><path
       sodipodi:type="star"
       style="fill:#f6221c;fill-opacity:1;stroke:#999999;stroke-width:0;stroke-dasharray:none;stroke-opacity:1"
       id="path13-0-0"
       inkscape:flatsided="false"
       sodipodi:sides="3"
       sodipodi:cx="155.24368"
       sodipodi:cy="80.288177"
       sodipodi:r1="7.1506882"
       sodipodi:r2="3.5753448"
       sodipodi:arg1="0.5388195"
       sodipodi:arg2="1.5860171"
       inkscape:rounded="0"
       inkscape:randomized="0"
       d="m 161.38123,83.957361 -6.19196,-0.09425 -6.19196,-0.09425 3.1776,-5.315269 3.17761,-5.315267 3.01435,5.409521 z"
       inkscape:transform-center-x="1.312994"
       inkscape:transform-center-y="-0.029947902"
       transform="matrix(0.67581409,0.17468416,-0.35699072,0.33069213,102.65209,37.54554)" /><path
       sodipodi:type="star"
       style="fill:#f68316;fill-opacity:1;stroke:#999999;stroke-width:0;stroke-dasharray:none;stroke-opacity:1"
       id="path13"
       inkscape:flatsided="false"
       sodipodi:sides="3"
       sodipodi:cx="155.24368"
       sodipodi:cy="80.288177"
       sodipodi:r1="7.1506882"
       sodipodi:r2="3.5753448"
       sodipodi:arg1="0.5388195"
       sodipodi:arg2="1.5860171"
       inkscape:rounded="0"
       inkscape:randomized="0"
       d="m 161.38123,83.957361 -6.19196,-0.09425 -6.19196,-0.09425 3.1776,-5.315269 3.17761,-5.315267 3.01435,5.409521 z"
       inkscape:transform-center-x="1.6334779"
       inkscape:transform-center-y="-0.018812218"
       transform="matrix(0.8407712,0.10973502,-0.44412735,0.20773782,83.408886,57.619979)" /><path
       sodipodi:type="star"
       style="fill:#f6ff75;fill-opacity:1;stroke:#999999;stroke-width:0;stroke-dasharray:none;stroke-opacity:1"
       id="path13-0"
       inkscape:flatsided="false"
       sodipodi:sides="3"
       sodipodi:cx="155.24368"
       sodipodi:cy="80.288177"
       sodipodi:r1="7.1506882"
       sodipodi:r2="3.5753448"
       sodipodi:arg1="0.5388195"
       sodipodi:arg2="1.5860171"
       inkscape:rounded="0"
       inkscape:randomized="0"
       d="m 161.38123,83.957361 -6.19196,-0.09425 -6.19196,-0.09425 3.1776,-5.315269 3.17761,-5.315267 3.01435,5.409521 z"
       inkscape:transform-center-x="1.312994"
       inkscape:transform-center-y="-0.016600956"
       transform="matrix(0.67581409,0.09683416,-0.35699072,0.18331539,102.7124,61.578352)" /><rect
       style="fill:#999999;fill-opacity:1;stroke:#000000;stroke-width:0.0209254;stroke-dasharray:none;stroke-opacity:1"
       id="rect6-7"
       width="2.7704093"
       height="0.6659984"
       x="171.43263"
       y="-91.680557"
       transform="scale(1,-1)" /><rect
       style="fill:#999999;fill-opacity:1;stroke:#000000;stroke-width:0.0801652;stroke-dasharray:none;stroke-opacity:1"
       id="rect6"
       width="17.721464"
       height="1.5280691"
       x="155.32788"
       y="-92.107422"
       transform="scale(1,-1)" /><rect
       style="fill:#999999;fill-opacity:1;stroke:#000000;stroke-width:0.0330068;stroke-dasharray:none;stroke-opacity:1"
       id="rect6-0"
       width="0.95709193"
       height="4.7965078"
       x="142.34621"
       y="90.053726" /><rect
       style="fill:#999999;fill-opacity:1;stroke:#000000;stroke-width:0.0463872;stroke-dasharray:none;stroke-opacity:1"
       id="rect6-0-1"
       width="7.6797023"
       height="1.1806563"
       x="143.03961"
       y="90.602448" /><rect
       style="fill:#999999;fill-opacity:1;stroke:#000000;stroke-width:0.0413989;stroke-dasharray:none;stroke-opacity:1"
       id="rect6-0-1-4"
       width="7.7200103"
       height="0.93547308"
       x="151.72766"
       y="88.348511" /><rect
       style="fill:#999999;fill-opacity:1;stroke:#000000;stroke-width:0.0149754;stroke-dasharray:none;stroke-opacity:1"
       id="rect6-0-1-4-6"
       width="0.62488252"
       height="1.512274"
       x="151.08702"
       y="88.011444" /><rect
       style="fill:#999999;fill-opacity:1;stroke:#000000;stroke-width:0.0337196;stroke-dasharray:none;stroke-opacity:1"
       id="rect6-0-1-4-6-2"
       width="3.2079229"
       height="1.4935298"
       x="153.78757"
       y="89.173874" /><rect
       style="fill:#999999;fill-opacity:1;stroke:#000000;stroke-width:0.0726442;stroke-dasharray:none;stroke-opacity:1"
       id="rect6-0-2"
       width="7.1217098"
       height="3.122416"
       x="150.61372"
       y="90.498108" /><rect
       style="fill:#999999;fill-opacity:1;stroke:#000000;stroke-width:0;stroke-dasharray:none;stroke-opacity:1"
       id="rect6-0-2-0"
       width="1.9358255"
       height="5.9281173"
       x="115.18262"
       y="134.68665"
       transform="matrix(0.95641988,-0.29199488,0.33691863,0.94153377,0,0)" /><rect
       style="fill:#999999;fill-opacity:1;stroke:#000000;stroke-width:0;stroke-dasharray:none;stroke-opacity:1"
       id="rect6-0-2-0-5"
       width="1.4207551"
       height="4.4928856"
       x="-174.81863"
       y="40.631641"
       transform="matrix(-0.95303607,-0.30285681,-0.32510993,0.94567623,0,0)" /><rect
       style="fill:#999999;fill-opacity:1;stroke:#999999;stroke-width:0.164272;stroke-dasharray:none;stroke-opacity:1"
       id="rect7"
       width="0.24489921"
       height="1.5457914"
       x="167.80788"
       y="89.253036" /><rect
       style="fill:#cccc65;fill-opacity:1;stroke:#999999;stroke-width:0.161;stroke-dasharray:none;stroke-opacity:1"
       id="rect7-9"
       width="0.13142967"
       height="2.7665703"
       x="176.78513"
       y="-69.689774"
       inkscape:transform-center-x="1.9338457"
       inkscape:transform-center-y="1.8454364"
       transform="rotate(49.534506)" /><path
       sodipodi:type="star"
       style="fill:#999999;fill-opacity:1;stroke:none;stroke-width:0.159;stroke-dasharray:none;stroke-opacity:1"
       id="path7"
       inkscape:flatsided="false"
       sodipodi:sides="3"
       sodipodi:cx="184.50464"
       sodipodi:cy="65.428688"
       sodipodi:r1="1.0811864"
       sodipodi:r2="0.54059327"
       sodipodi:arg1="2.2557584"
       sodipodi:arg2="3.3029559"
       inkscape:rounded="0"
       inkscape:randomized="0"
       d="m 183.82063,66.266005 0.15044,-0.924171 0.15043,-0.924171 0.72514,0.592366 0.72514,0.592367 -0.87557,0.331805 z"
       inkscape:transform-center-x="-0.40813741"
       inkscape:transform-center-y="0.19760747"
       transform="matrix(2.0564779,-0.70509845,0.70509845,2.0564779,-281.45757,87.797036)" /><g
       id="g9"
       transform="translate(-37.5879,24.633574)"><path
         id="path8"
         style="fill:#1a1a1a;fill-rule:evenodd;stroke:#000000;stroke-width:0.137333"
         d="m 192.10407,68.709951 c 0,0.250595 -0.33176,0.255968 -0.59511,0.408578 -0.2028,0.117523 0.19048,0.624297 -0.0718,0.723793 -0.25994,0.09861 -0.29942,0.752521 -0.75619,0.703849 -0.20245,-0.02157 -0.22076,0.519471 -0.57995,0.652693 -0.33681,0.124921 -0.96761,-0.0997 -1.13653,-0.158076 -1.12955,-0.390345 -1.89706,-1.923673 -1.89706,-2.722772 0,-0.799099 0.96882,-1.446896 2.16391,-1.446897 1.19509,1e-6 2.87273,1.039734 2.87273,1.838832 z"
         sodipodi:nodetypes="sssssssss" /><ellipse
         style="fill:#1a1a1a;fill-opacity:1;fill-rule:evenodd;stroke:#000000;stroke-width:0.126456;stroke-dasharray:none;stroke-opacity:1"
         id="path9"
         cx="197.87396"
         cy="41.207844"
         rx="2.2838166"
         ry="0.54727203"
         transform="matrix(0.9910436,0.13353869,-0.11840454,0.99296544,0,0)" /></g><path
       id="path8-5"
       style="fill:#1a1a1a;fill-rule:evenodd;stroke:#000000;stroke-width:0.137333"
       d="m 158.52108,89.675785 c 0.22105,-0.118039 0.38206,0.17208 0.64073,0.3325 0.19919,0.123535 0.46098,-0.462092 0.67229,-0.277597 0.20942,0.182847 0.80484,-0.09034 0.97706,0.335507 0.0763,0.188744 0.56222,-0.04995 0.84893,0.204139 0.26885,0.238263 0.36783,0.900505 0.39591,1.077008 0.18773,1.180259 -0.80332,2.579543 -1.50821,2.955948 -0.7049,0.376405 -1.73268,-0.173068 -2.29561,-1.227273 -0.56293,-1.054206 -0.436,-3.023827 0.2689,-3.400232 z"
       sodipodi:nodetypes="sssssssss" /><rect
       style="fill:#2b1100;fill-opacity:1;stroke:#999999;stroke-width:0;stroke-dasharray:none;stroke-opacity:1"
       id="rect10"
       width="1.9770492"
       height="0.58170873"
       x="140.52159"
       y="87.584503" /><path
       sodipodi:type="star"
       style="fill:#d1915f;fill-opacity:1;stroke:#999999;stroke-width:0;stroke-dasharray:none;stroke-opacity:1"
       id="path11"
       inkscape:flatsided="false"
       sodipodi:sides="3"
       sodipodi:cx="101.61023"
       sodipodi:cy="129.70163"
       sodipodi:r1="0.89814347"
       sodipodi:r2="0.44907182"
       sodipodi:arg1="0.23860932"
       sodipodi:arg2="1.2858069"
       inkscape:rounded="0"
       inkscape:randomized="0"
       d="m 102.48293,129.91391 -0.74645,0.21868 -0.74644,0.21868 0.18384,-0.75578 0.18384,-0.75578 0.5626,0.5371 z"
       inkscape:transform-center-x="-0.13612928"
       inkscape:transform-center-y="-0.1330712"
       transform="matrix(1.0782022,0,0,1.253776,34.964163,-73.796088)" /><path
       id="path10"
       style="fill:#ffffd1;fill-opacity:1;fill-rule:evenodd;stroke:#000000;stroke-width:0"
       d="m 144.70489,88.204145 c 1e-5,0.2738 -0.58833,0.39569 -1.34495,0.3957 -0.75662,0 -1.36999,-0.43878 -1.36998,-0.71258 1e-5,-0.2738 0.61337,-0.49575 1.36998,-0.49575 0.28505,0 0.93305,-0.11296 1.1523,-0.0591 0.36269,0.0892 0.19265,0.70104 0.19265,0.87168 z"
       sodipodi:nodetypes="ssssss" /></g></svg>
