<?xml version="1.0" encoding="UTF-8" standalone="no"?>
<!-- Created with Inkscape (http://www.inkscape.org/) -->

<svg
   width="65.651207mm"
   height="72.834808mm"
   viewBox="0 0 65.651207 72.834809"
   version="1.1"
   id="svg1"
   xml:space="preserve"
   inkscape:version="1.4.3 (0d15f75, 2025-12-25)"
   sodipodi:docname="Infantry_dead_4.svg"
   xmlns:inkscape="http://www.inkscape.org/namespaces/inkscape"
   xmlns:sodipodi="http://sodipodi.sourceforge.net/DTD/sodipodi-0.dtd"
   xmlns="http://www.w3.org/2000/svg"
   xmlns:svg="http://www.w3.org/2000/svg"><sodipodi:namedview
     id="namedview1"
     pagecolor="#ffffff"
     bordercolor="#000000"
     borderopacity="0.25"
     inkscape:showpageshadow="2"
     inkscape:pageopacity="0.0"
     inkscape:pagecheckerboard="0"
     inkscape:deskcolor="#d1d1d1"
     inkscape:document-units="mm"
     inkscape:zoom="1.4022026"
     inkscape:cx="-228.92555"
     inkscape:cy="54.557023"
     inkscape:window-width="1920"
     inkscape:window-height="974"
     inkscape:window-x="-11"
     inkscape:window-y="-11"
     inkscape:window-maximized="1"
     inkscape:current-layer="layer1"><inkscape:page
       x="0"
       y="0"
       width="65.651207"
       height="72.834808"
       id="page1"
       margin="0"
       bleed="0" /></sodipodi:namedview><defs
     id="defs1" /><g
     inkscape:label="Laag 1"
     inkscape:groupmode="layer"
     id="layer1"
     transform="translate(-121.51715,-67.457117)"><path
       id="path1"
       style="fill:#d1915f;fill-rule:evenodd;stroke:#000000;stroke-width:0.299156"
       d="m 144.64725,87.647079 c 0,1.728004 -1.27303,4.084077 -3.10524,4.084076 -1.83222,10e-7 -3.5298,-2.356072 -3.5298,-4.084076 0,-1.728004 1.4853,-3.128827 3.31752,-3.128826 1.83222,-10e-7 3.31752,1.400822 3.31752,3.128826 z"
       sodipodi:nodetypes="sssss" /><path
       id="path2"
       style="fill:#2d5016;fill-opacity:1;fill-rule:evenodd;stroke:#000000;stroke-width:0.329999"
       d="m 145.32772,84.585345 c 0,0.302241 1.27286,1.222171 0.53941,1.746781 -1.32327,0.946493 -4.19945,-0.320886 -5.8298,2.000013 -0.76768,1.092823 -2.71929,0.663862 -3.24788,0.663863 -2.34476,0 -0.7728,-3.386476 -0.23586,-4.339898 0.58966,-1.047045 2.18383,-2.052016 4.52858,-2.052017 2.34476,10e-7 4.24555,0.88704 4.24555,1.981258 z"
       sodipodi:nodetypes="sssssss" /><path
       id="path3-8"
       style="fill:#2d5016;fill-rule:evenodd;stroke:#000000;stroke-width:0.159"
       d="m 138.48518,127.62847 c -1.16052,-0.0944 -1.76447,-4.3114 -1.34896,-9.41891 0.26001,-3.19614 0.027,-6.53631 0.72226,-8.15187 0.41578,-0.96614 1.69709,-0.96047 2.13138,-0.92514 0.5347,0.0435 1.58623,0.13807 1.83934,1.61587 0.29627,1.72951 -0.26631,5.04875 -0.49038,7.80303 -0.23751,2.91955 -0.59377,6.69457 -1.21174,8.35038 -0.46314,1.2409 -1.14475,0.76708 -1.64189,0.72664 z"
       sodipodi:nodetypes="ssssssss" /><path
       id="path3-8-1"
       style="fill:#2d5016;fill-rule:evenodd;stroke:#000000;stroke-width:0.159"
       d="m 147.34554,127.81514 c -1.13481,0.26065 -2.98466,-3.57678 -4.13175,-8.57113 -0.71782,-3.12532 -1.94914,-6.23898 -1.7745,-7.9891 0.10444,-1.04661 1.32758,-1.42834 1.75224,-1.52588 0.52286,-0.12009 1.55382,-0.34764 2.2416,0.98461 0.80498,1.55917 1.27156,4.89326 1.89015,7.58651 0.6557,2.85486 1.45667,6.56109 1.36787,8.32623 -0.0666,1.32284 -0.85948,1.0771 -1.3456,1.18876 z"
       sodipodi:nodetypes="ssssssss" /><path
       id="rect1"
       style="fill:#2d5016;stroke:#000000;stroke-width:0.28111"
       inkscape:transform-center-x="-2.6136795"
       inkscape:transform-center-y="6.2628575"
       d="m 137.64412,92.691422 0.99676,-1.061388 h 5.61357 l 1.18902,1.17932 -0.0472,17.593696 h -7.68142 z"
       sodipodi:nodetypes="ccccccc" /><path
       id="path4"
       style="fill:#502d16;fill-opacity:1;fill-rule:evenodd;stroke:#000000;stroke-width:0.329999"
       d="m 149.07836,126.96616 c 0.0944,0.39672 3.04423,1.16914 3.10736,1.56506 0.03,0.1881 1.07381,-0.34906 1.51733,-0.15553 0.70097,0.30589 1.11955,1.29143 0.79625,1.49484 -0.87968,0.55345 -4.30275,1.0294 -4.78305,1.14373 -0.58444,0.13913 -3.32605,0.43693 -3.83065,-0.20733 -0.3619,-0.46204 -0.27329,-2.26864 -0.44166,-2.97596 -0.20764,-0.87227 -0.66898,-2.40004 -0.45549,-3.04087 0.20105,-0.6034 1.05599,-0.34235 1.54268,-0.4582 0.50497,-0.12021 1.80408,-0.50789 2.26697,-0.0252 0.45708,0.47666 0.0799,1.81767 0.28017,2.6591 z"
       sodipodi:nodetypes="ssssssssssss" /><path
       id="path4-2"
       style="fill:#502d16;fill-rule:evenodd;stroke:#000000;stroke-width:0.329999"
       d="m 140.01584,128.22885 c -0.0143,0.40754 2.62449,1.93553 2.58023,2.334 -0.021,0.18931 1.12795,-0.0514 1.50415,0.25296 0.59458,0.48104 0.73644,1.54235 0.37073,1.65261 -0.99506,0.29999 -4.42163,-0.1501 -4.91504,-0.16741 -0.60041,-0.0211 -3.32267,-0.46195 -3.63808,-1.21707 -0.22622,-0.54155 0.33893,-2.25977 0.36443,-2.98641 0.0314,-0.89609 -0.008,-2.49151 0.36833,-3.05265 0.35405,-0.52835 1.10898,-0.0496 1.60896,-0.0321 0.51877,0.0182 1.87418,-0.0106 2.19228,0.57767 0.3141,0.58092 -0.40563,1.77364 -0.43598,2.63804 z"
       sodipodi:nodetypes="ssssssssssss" /><rect
       style="fill:#000000;fill-opacity:0;stroke:none;stroke-width:0.159;stroke-dasharray:none;stroke-opacity:1"
       id="rect4"
       width="8.2723408"
       height="5.4037061"
       x="173.52289"
       y="62.075684" /><rect
       style="fill:#000000;fill-opacity:0;stroke:none;stroke-width:0.159;stroke-dasharray:none;stroke-opacity:1"
       id="rect5"
       width="20.280577"
       height="3.8693204"
       x="158.84615"
       y="64.877609" /><rect
       style="fill:#2b1100;fill-opacity:1;stroke:#999999;stroke-width:0;stroke-dasharray:none;stroke-opacity:1"
       id="rect10"
       width="1.9770492"
       height="0.58170873"
       x="140.52159"
       y="87.584503" /><path
       sodipodi:type="star"
       style="fill:#d1915f;fill-opacity:1;stroke:#999999;stroke-width:0;stroke-dasharray:none;stroke-opacity:1"
       id="path11"
       inkscape:flatsided="false"
       sodipodi:sides="3"
       sodipodi:cx="101.61023"
       sodipodi:cy="129.70163"
       sodipodi:r1="0.89814347"
       sodipodi:r2="0.44907182"
       sodipodi:arg1="0.23860932"
       sodipodi:arg2="1.2858069"
       inkscape:rounded="0"
       inkscape:randomized="0"
       d="m 102.48293,129.91391 -0.74645,0.21868 -0.74644,0.21868 0.18384,-0.75578 0.18384,-0.75578 0.5626,0.5371 z"
       inkscape:transform-center-x="-0.13612928"
       inkscape:transform-center-y="-0.1330712"
       transform="matrix(1.0782022,0,0,1.253776,34.964163,-73.796088)" /><path
       id="path10"
       style="fill:#ffffd1;fill-opacity:1;fill-rule:evenodd;stroke:#000000;stroke-width:0"
       d="m 144.70489,88.204145 c 1e-5,0.2738 -0.58833,0.39569 -1.34495,0.3957 -0.75662,0 -1.36999,-0.43878 -1.36998,-0.71258 1e-5,-0.2738 0.61337,-0.49575 1.36998,-0.49575 0.28505,0 0.93305,-0.11296 1.1523,-0.0591 0.36269,0.0892 0.19265,0.70104 0.19265,0.87168 z"
       sodipodi:nodetypes="ssssss" /><g
       id="g6"
       transform="matrix(1.000185,0,0,0.58663276,-43.937995,37.897838)"><g
         id="g5"><path
           sodipodi:type="star"
           style="fill:#f05a28;fill-opacity:1;stroke:none;stroke-width:0.1;stroke-dasharray:none;stroke-opacity:1"
           id="path5"
           inkscape:flatsided="false"
           sodipodi:sides="12"
           sodipodi:cx="169.79852"
           sodipodi:cy="76.467125"
           sodipodi:r1="4.7886791"
           sodipodi:r2="2.3943398"
           sodipodi:arg1="0.33109608"
           sodipodi:arg2="0.59289546"
           inkscape:rounded="0"
           inkscape:randomized="0"
           d="m 174.32711,78.023828 -2.5429,-0.218831 1.15784,2.274567 -2.09281,-1.460963 -0.13457,2.548749 -1.08193,-2.311632 -1.39092,2.139997 0.21883,-2.542901 -2.27457,1.157833 1.46097,-2.092801 -2.54875,-0.13457 2.31163,-1.081938 -2.14,-1.390916 2.5429,0.218831 -1.15783,-2.274567 2.0928,1.460963 0.13457,-2.548749 1.08194,2.311632 1.39092,-2.139997 -0.21883,2.542901 2.27456,-1.157833 -1.46096,2.092801 2.54875,0.13457 -2.31163,1.081938 z"
           transform="matrix(0.41789536,0,0,0.12152049,99.559895,73.341219)" /><g
           id="g3"
           transform="matrix(0.64244249,0,0,0.80074558,67.109695,17.955736)"><rect
             style="fill:#000000;stroke:none;stroke-width:0.101996;stroke-dasharray:none"
             id="rect3"
             width="1.9359809"
             height="1.3989861"
             x="158.44376"
             y="80.063622" /><ellipse
             style="fill:#000000;fill-opacity:1;fill-rule:evenodd;stroke:#000000;stroke-width:0.128109;stroke-dasharray:none;stroke-opacity:1"
             id="path3"
             cx="158.56908"
             cy="80.76313"
             rx="0.96209091"
             ry="0.64072621" /></g></g></g><ellipse
       style="fill:#ff042a;fill-opacity:1;fill-rule:evenodd;stroke:#000000;stroke-width:0.13;stroke-dasharray:none;stroke-opacity:1"
       id="path6"
       cx="136.73161"
       cy="86.340538"
       rx="0.25851065"
       ry="0.20847632" /><ellipse
       style="fill:#ff2a2a;fill-opacity:1;fill-rule:evenodd;stroke:#000000;stroke-width:0;stroke-dasharray:none;stroke-opacity:1"
       id="path12"
       cx="136.64783"
       cy="87.683983"
       rx="0.094345614"
       ry="1.4623569" /><ellipse
       style="fill:#ff2a2a;fill-opacity:1;fill-rule:evenodd;stroke:#000000;stroke-width:0;stroke-dasharray:none;stroke-opacity:1"
       id="path12-6"
       cx="157.68074"
       cy="-34.114285"
       rx="0.094345614"
       ry="1.4623569"
       transform="rotate(45)" /><ellipse
       style="fill:#ff2a2a;fill-opacity:1;fill-rule:evenodd;stroke:#000000;stroke-width:0;stroke-dasharray:none;stroke-opacity:1"
       id="path12-3"
       cx="137.00963"
       cy="88.825241"
       rx="0.094345614"
       ry="1.4623569" /><ellipse
       style="fill:#ff2a2a;fill-opacity:1;fill-rule:evenodd;stroke:#000000;stroke-width:0;stroke-dasharray:none;stroke-opacity:1"
       id="path12-3-9"
       cx="86.288734"
       cy="-135.17349"
       rx="0.094345614"
       ry="1.4623569"
       transform="rotate(90)" /><path
       id="path3-6-93"
       style="fill:#2d5016;fill-rule:evenodd;stroke:#000000;stroke-width:0.161296"
       d="m 153.42969,105.10363 c -1.36001,0.34233 -4.88779,-2.42965 -7.87951,-6.191371 -1.87213,-2.353988 -4.39237,-4.636117 -4.70894,-6.024778 -0.18934,-0.83045 1.24554,-1.278167 1.7545,-1.406265 0.6266,-0.157734 1.85713,-0.135197 3.13941,0.821204 1.50108,1.119739 4.92524,3.369975 6.53856,5.398534 1.71012,2.150265 2.068,4.919546 2.49811,6.309466 0.32234,1.04163 -0.75954,0.94654 -1.34212,1.09321 z"
       sodipodi:nodetypes="sssssssss" /><path
       id="path3-6"
       style="fill:#2d5016;fill-rule:evenodd;stroke:#000000;stroke-width:0.126576"
       d="m 146.56108,103.64409 c -1.15911,0.17868 -2.49694,-2.25964 -2.98813,-5.446129 -0.30737,-1.994021 -1.12549,-3.975259 -0.7258,-5.097844 0.23902,-0.671338 1.50139,-0.928467 1.93517,-0.995327 0.53403,-0.08233 1.43128,0.01945 1.94089,0.865166 0.59649,0.990138 2.09579,3.007741 2.36067,4.726091 0.28078,1.821457 -0.71798,4.041493 -1.03452,5.172813 -0.23721,0.84784 -0.99174,0.69867 -1.48826,0.77523 z"
       sodipodi:nodetypes="sssssssss" /><path
       id="path3-6-9-1"
       style="fill:#2d5016;fill-rule:evenodd;stroke:#000000;stroke-width:0.126576"
       d="m 162.60647,103.26875 c -0.094,1.16903 -2.77545,1.90724 -5.98921,1.64886 -2.01107,-0.16168 -4.12773,0.17651 -5.12759,-0.47173 -0.59793,-0.38766 -0.55642,-1.67529 -0.52125,-2.11277 0.0433,-0.53861 0.48122,-0.90769 1.42183,-1.20808 1.10118,-0.35156 2.83432,-0.58013 4.56737,-0.44078 1.83704,0.14769 4.21092,0.38799 5.23849,0.9574 0.77007,0.42671 0.45062,1.12633 0.41036,1.62713 z"
       sodipodi:nodetypes="sssssssss" /><path
       id="path3-6-9"
       style="fill:#2d5016;fill-rule:evenodd;stroke:#000000;stroke-width:0.126576"
       d="m 156.06261,98.629142 c 0.33461,1.12404 -1.89917,2.780958 -4.98929,3.700848 -1.93371,0.57563 -3.7853,1.65553 -4.95181,1.41221 -0.69759,-0.14552 -1.12397,-1.36122 -1.24919,-1.78186 -0.15417,-0.51789 0.12086,-1.02023 0.88944,-1.6401 0.89985,-0.725573 2.43342,-1.564716 4.0998,-2.060773 1.76637,-0.52582 4.06678,-1.159181 5.23064,-0.999382 0.87221,0.119745 0.82703,0.887525 0.97038,1.369052 z"
       sodipodi:nodetypes="sssssssss" /><rect
       style="fill:#999999;fill-opacity:1;stroke:#000000;stroke-width:0.0209254;stroke-dasharray:none;stroke-opacity:1"
       id="rect6-7"
       width="2.7704093"
       height="0.6659984"
       x="202.24583"
       y="-2.9391305"
       transform="matrix(0.85277488,0.52227866,0.52227866,-0.85277488,0,0)" /><rect
       style="fill:#999999;fill-opacity:1;stroke:#000000;stroke-width:0.0801652;stroke-dasharray:none;stroke-opacity:1"
       id="rect6"
       width="17.721464"
       height="1.5280691"
       x="186.14108"
       y="-3.3659952"
       transform="matrix(0.85277488,0.52227866,0.52227866,-0.85277488,0,0)" /><rect
       style="fill:#999999;fill-opacity:1;stroke:#000000;stroke-width:0.0330068;stroke-dasharray:none;stroke-opacity:1"
       id="rect6-0"
       width="0.95709193"
       height="4.7965078"
       x="173.15941"
       y="1.3122995"
       transform="rotate(31.485224)" /><rect
       style="fill:#999999;fill-opacity:1;stroke:#000000;stroke-width:0.0463872;stroke-dasharray:none;stroke-opacity:1"
       id="rect6-0-1"
       width="7.6797023"
       height="1.1806563"
       x="173.85281"
       y="1.8610208"
       transform="rotate(31.485224)" /><rect
       style="fill:#999999;fill-opacity:1;stroke:#000000;stroke-width:0.0413989;stroke-dasharray:none;stroke-opacity:1"
       id="rect6-0-1-4"
       width="7.7200103"
       height="0.93547308"
       x="182.54086"
       y="-0.39291599"
       transform="rotate(31.485224)" /><rect
       style="fill:#999999;fill-opacity:1;stroke:#000000;stroke-width:0.0149754;stroke-dasharray:none;stroke-opacity:1"
       id="rect6-0-1-4-6"
       width="0.62488252"
       height="1.512274"
       x="181.90022"
       y="-0.72998261"
       transform="rotate(31.485224)" /><rect
       style="fill:#999999;fill-opacity:1;stroke:#000000;stroke-width:0.0337196;stroke-dasharray:none;stroke-opacity:1"
       id="rect6-0-1-4-6-2"
       width="3.2079229"
       height="1.4935298"
       x="184.60077"
       y="0.43244717"
       transform="rotate(31.485224)" /><rect
       style="fill:#999999;fill-opacity:1;stroke:#000000;stroke-width:0.0726442;stroke-dasharray:none;stroke-opacity:1"
       id="rect6-0-2"
       width="7.1217098"
       height="3.122416"
       x="181.42693"
       y="1.7566812"
       transform="rotate(31.485224)" /><rect
       style="fill:#999999;fill-opacity:1;stroke:#000000;stroke-width:0;stroke-dasharray:none;stroke-opacity:1"
       id="rect6-0-2-0"
       width="1.9358255"
       height="5.9281173"
       x="174.15897"
       y="58.724812"
       transform="matrix(0.96811355,0.25051179,-0.20442725,0.97888176,0,0)" /><rect
       style="fill:#999999;fill-opacity:1;stroke:#000000;stroke-width:0;stroke-dasharray:none;stroke-opacity:1"
       id="rect6-0-2-0-5"
       width="1.4207551"
       height="4.4928856"
       x="-175.1073"
       y="-53.299927"
       transform="matrix(-0.65454957,-0.75601908,-0.7711521,0.63665096,0,0)" /><rect
       style="fill:#999999;fill-opacity:1;stroke:#999999;stroke-width:0.164272;stroke-dasharray:none;stroke-opacity:1"
       id="rect7"
       width="0.24489921"
       height="1.5457914"
       x="198.62108"
       y="0.51160979"
       transform="rotate(31.485224)" /><rect
       style="fill:#cccc65;fill-opacity:1;stroke:#999999;stroke-width:0.161;stroke-dasharray:none;stroke-opacity:1"
       id="rect7-9"
       width="0.13142967"
       height="2.7665703"
       x="129.26837"
       y="-150.72466"
       inkscape:transform-center-x="1.9338457"
       inkscape:transform-center-y="1.8454364"
       transform="rotate(81.01973)" /><path
       sodipodi:type="star"
       style="fill:#999999;fill-opacity:1;stroke:none;stroke-width:0.159;stroke-dasharray:none;stroke-opacity:1"
       id="path7"
       inkscape:flatsided="false"
       sodipodi:sides="3"
       sodipodi:cx="184.50464"
       sodipodi:cy="65.428688"
       sodipodi:r1="1.0811864"
       sodipodi:r2="0.54059327"
       sodipodi:arg1="2.2557584"
       sodipodi:arg2="3.3029559"
       inkscape:rounded="0"
       inkscape:randomized="0"
       d="m 183.82063,66.266005 0.15044,-0.924171 0.15043,-0.924171 0.72514,0.592366 0.72514,0.592367 -0.87557,0.331805 z"
       inkscape:transform-center-x="-0.40813741"
       inkscape:transform-center-y="0.19760747"
       transform="matrix(2.1219706,0.47276427,-0.47276427,2.1219706,-213.24999,-131.71156)" /><g
       id="g9"
       transform="rotate(31.485224,117.09812,20.037357)"><path
         id="path8"
         style="fill:#1a1a1a;fill-rule:evenodd;stroke:#000000;stroke-width:0.137333"
         d="m 192.10407,68.709951 c 0,0.250595 -0.33176,0.255968 -0.59511,0.408578 -0.2028,0.117523 0.19048,0.624297 -0.0718,0.723793 -0.25994,0.09861 -0.29942,0.752521 -0.75619,0.703849 -0.20245,-0.02157 -0.22076,0.519471 -0.57995,0.652693 -0.33681,0.124921 -0.96761,-0.0997 -1.13653,-0.158076 -1.12955,-0.390345 -1.89706,-1.923673 -1.89706,-2.722772 0,-0.799099 0.96882,-1.446896 2.16391,-1.446897 1.19509,1e-6 2.87273,1.039734 2.87273,1.838832 z"
         sodipodi:nodetypes="sssssssss" /><ellipse
         style="fill:#1a1a1a;fill-opacity:1;fill-rule:evenodd;stroke:#000000;stroke-width:0.126456;stroke-dasharray:none;stroke-opacity:1"
         id="path9"
         cx="197.87396"
         cy="41.207844"
         rx="2.2838166"
         ry="0.54727203"
         transform="matrix(0.9910436,0.13353869,-0.11840454,0.99296544,0,0)" /></g><path
       id="path8-5"
       style="fill:#1a1a1a;fill-rule:evenodd;stroke:#000000;stroke-width:0.137333"
       d="m 160.97152,99.682051 c 0.25016,0.01479 0.23594,0.346289 0.37274,0.618189 0.10535,0.20938 0.63446,-0.1533 0.7183,0.11439 0.0831,0.26531 0.73353,0.34331 0.65798,0.79641 -0.0335,0.20081 0.50554,0.25104 0.61733,0.61747 0.10483,0.34359 -0.15664,0.96003 -0.22488,1.12522 -0.45633,1.10454 -2.03229,1.78021 -2.82999,1.73305 -0.79771,-0.0472 -1.38719,-1.05253 -1.31666,-2.24554 0.0705,-1.193 1.20747,-2.806355 2.00518,-2.759189 z"
       sodipodi:nodetypes="sssssssss" /><ellipse
       style="fill:#ff042a;fill-opacity:1;fill-rule:evenodd;stroke:#000000;stroke-width:0;stroke-dasharray:none;stroke-opacity:1"
       id="path6-2"
       cx="146.73343"
       cy="82.829292"
       rx="0.25851065"
       ry="0.20847632"
       transform="rotate(1.3801346)" /><ellipse
       style="fill:#ff2a2a;fill-opacity:1;fill-rule:evenodd;stroke:#000000;stroke-width:0;stroke-dasharray:none;stroke-opacity:1"
       id="path12-4"
       cx="136.64709"
       cy="89.974869"
       rx="0.094345614"
       ry="0.33020955" /><ellipse
       style="fill:#ff2a2a;fill-opacity:1;fill-rule:evenodd;stroke:#000000;stroke-width:0;stroke-dasharray:none;stroke-opacity:1"
       id="path12-4-7"
       cx="136.65071"
       cy="90.935257"
       rx="0.094345614"
       ry="0.33020955" /><ellipse
       style="fill:#ff2a2a;fill-opacity:1;fill-rule:evenodd;stroke:#000000;stroke-width:0;stroke-dasharray:none;stroke-opacity:1"
       id="path12-4-7-6"
       cx="86.301071"
       cy="-133.12453"
       rx="0.094345614"
       ry="0.33020955"
       transform="rotate(90)"
       inkscape:transform-center-x="0.047172808"
       inkscape:transform-center-y="0.43634847" /><ellipse
       style="fill:#ff2a2a;fill-opacity:1;fill-rule:evenodd;stroke:#000000;stroke-width:0;stroke-dasharray:none;stroke-opacity:1"
       id="ellipse12"
       cx="136.64709"
       cy="89.974869"
       rx="0.094345614"
       ry="0.33020955" /><ellipse
       style="fill:#ff2a2a;fill-opacity:1;fill-rule:evenodd;stroke:#000000;stroke-width:0;stroke-dasharray:none;stroke-opacity:1"
       id="ellipse12-6"
       cx="157.6779"
       cy="-31.98234"
       rx="0.094345614"
       ry="0.33020955"
       transform="rotate(45)" /></g></svg>
